<?xml version="1.0" encoding="utf-8"?>
<!-- Generator: Adobe Illustrator 22.1.0, SVG Export Plug-In . SVG Version: 6.00 Build 0)  -->
<svg version="1.1" id="Capa_1" xmlns="http://www.w3.org/2000/svg" xmlns:xlink="http://www.w3.org/1999/xlink" x="0px" y="0px"
	 viewBox="0 0 297 297" style="enable-background:new 0 0 297 297;" xml:space="preserve">
<style type="text/css">
	.st0{fill:#F44D37;}
</style>
<g>
	<path class="st0" d="M201.6,207.6c0,6.7,5.4,12.2,12.1,12.2h71.2c3.9,0,7.6-2,9.8-5.1c2.3-3.2,2.9-7.3,1.6-11l-9.7-28.5l9.7-27.8
		c1.3-3.7,0.7-7.8-1.6-11c-2.3-3.2-5.9-5.1-9.9-5.1h-10.5c-1.7,5.3-3.4,10.7-5.1,16.1l0,0.1c-3.5,11-7,22.4-10.6,32.9
		c-3.8,11-14.1,18.3-25.6,18.3c-3,0-5.9-0.5-8.8-1.5c-7.5-2.6-15.1-4.7-22.7-6.5L201.6,207.6L201.6,207.6z"/>
	<path class="st0" d="M233.1,183.6c5,0,9.7-3.2,11.4-8.2c3.5-10.3,7.1-21.6,10.5-32.6c3.4-10.8,6.9-22,10.3-32c1-3,0.8-6.4-0.6-9.2
		c-1.4-2.9-3.9-5.1-6.9-6.1c-35.3-12.1-72-18.2-109.3-18.2c-37.3,0-74.1,6.1-109.3,18.2c-3,1-5.5,3.2-6.9,6.1
		c-1.4,2.9-1.6,6.2-0.6,9.2c3.4,10,6.9,21.2,10.3,32c3.4,11,7,22.3,10.5,32.6c1.7,5,6.4,8.2,11.4,8.2c1.3,0,2.6-0.2,3.9-0.7
		c26-8.9,53.2-13.4,80.7-13.4s54.7,4.5,80.7,13.4C230.5,183.4,231.8,183.6,233.1,183.6z"/>
	<path class="st0" d="M94.5,190.9c-7.3,1.7-14.7,3.8-21.8,6.3c-2.8,1-5.8,1.5-8.8,1.5c-11.6,0-21.9-7.4-25.6-18.3
		c-3.6-10.5-7.2-21.9-10.6-33c-1.7-5.3-3.4-10.7-5.1-16.1H12.1c-3.9,0-7.6,1.9-9.9,5.1s-2.9,7.3-1.6,11l9.7,27.8l-9.7,28.5
		c-1.3,3.7-0.7,7.8,1.6,11c2.3,3.2,5.9,5.1,9.8,5.1h70.3c6.7,0,12.1-5.5,12.1-12.2L94.5,190.9L94.5,190.9z"/>
</g>
</svg>
