<?xml version="1.0" encoding="iso-8859-1"?>
<!-- Generator: Adobe Illustrator 19.0.0, SVG Export Plug-In . SVG Version: 6.00 Build 0)  -->
<svg version="1.1" id="Capa_1" xmlns="http://www.w3.org/2000/svg" xmlns:xlink="http://www.w3.org/1999/xlink" x="0px" y="0px"
	 viewBox="0 0 512 512" style="enable-background:new 0 0 512 512;" xml:space="preserve">
<path style="fill:#FFAC55;" d="M263.866,3.518c-4.191-4.69-11.56-4.69-15.75,0c-9.662,10.815-23.067,31.507-8.438,52.007h32.627
	C286.933,35.025,273.528,14.333,263.866,3.518z"/>
<g>
	<path style="fill:#E69B4C;" d="M266.292,6.367c-0.822-1.01-1.637-1.966-2.426-2.849c-4.191-4.69-11.56-4.69-15.75,0
		c-9.662,10.815-23.067,31.507-8.438,52.007h20.604C246.846,36.7,257.052,17.719,266.292,6.367z"/>
	<path style="fill:#E69B4C;" d="M368.94,105.846c-3.634-4.439-7.572-8.694-11.807-12.736c-7.73-7.382-16.182-13.822-25.195-19.255
		c0.073-0.044,0.048-0.07-0.112-0.07c-22.63-13.614-48.809-20.902-76.134-20.902c-27.327,0-53.505,7.289-76.134,20.902
		c-9.056,5.448-17.545,11.912-25.307,19.325c-4.234,4.043-8.172,8.297-11.807,12.736c-19.879,24.253-30.69,54.012-30.743,85.389
		v0.072h287.983v-0.072C399.63,159.858,388.82,130.098,368.94,105.846z"/>
</g>
<g>
	<path style="fill:#FFAC55;" d="M144.4,246.47c0,11.55-4.739,27.1-19.232,20.89c-13.804-5.915-14.494-18.367-18.411-30.899
		c-5.052-16.164-21.622-26.794-21.621-44.838c0-23.558,29.86-29.832,45.331,0l18.456,15.812L144.4,246.47z"/>
	<path style="fill:#FFAC55;" d="M366.984,246.47c0,11.55,4.739,27.1,19.232,20.89c13.804-5.915,14.494-18.367,18.411-30.899
		c5.052-16.164,21.621-26.794,21.621-44.838c0-23.558-29.86-29.832-45.331,0l-18.456,15.812L366.984,246.47z"/>
</g>
<path style="fill:#FF6835;" d="M425.565,460.511h-31.027l-32.075-19.709H135.8l-18.29,19.709H86.436
	c-14.219,0-25.744,11.526-25.744,25.744l0,0l195.332,12.872l195.285-12.872l0,0C451.309,472.037,439.783,460.511,425.565,460.511z"
	/>
<path style="fill:#FF462E;" d="M451.309,486.256H60.691c-14.219,0-25.744,11.526-25.744,25.744l0,0h442.105l0,0
	C477.054,497.781,465.527,486.256,451.309,486.256z"/>
<path style="fill:#E69B4C;" d="M340.784,395.401l3.094-83.852l-4.199-30.101l-83.988,13.985l-83.39-13.986l-4.797,30.101
	l3.094,83.852c-1.885,14.462-3.094,29.149-3.094,43.045h176.373C343.878,424.549,342.669,409.861,340.784,395.401L340.784,395.401z"
	/>
<path style="fill:#FFCE6E;" d="M343.288,395.12c86.785,0,51.25,65.392,51.25,65.392h-173.89
	C220.648,460.511,266.603,395.12,343.288,395.12z"/>
<path style="fill:#FFAC55;" d="M316.686,442.741c-1.002-1.426-12.239-17.107-32.46-34.086
	c-40.587,19.151-63.579,51.856-63.579,51.856h108.528L316.686,442.741z"/>
<path style="fill:#FFCE6E;" d="M168.761,395.12c-86.785,0-51.25,65.392-51.25,65.392H291.4
	C291.4,460.511,245.444,395.12,168.761,395.12z"/>
<path style="fill:#FFAC55;" d="M183.795,395.975c-4.872-0.551-9.881-0.855-15.034-0.855c-86.785,0-51.25,65.392-51.25,65.392h30.905
	C148.415,460.511,117.514,403.623,183.795,395.975z"/>
<path style="fill:#FFCE6E;" d="M381.515,191.566c-1.124-0.946-17.009-14.814-22.417-47.796
	c-2.166-13.214-13.549-22.937-26.939-22.937h-152.27c-13.39,0-24.773,9.724-26.939,22.937
	c-5.607,34.199-22.485,47.853-22.485,47.853c0.126,66.253,56.276,119.925,125.525,119.925s125.399-53.672,125.526-119.925
	l-0.001-0.001h0.001C381.516,191.603,381.515,191.585,381.515,191.566z"/>
<g>
	<path style="fill:#E69B4C;" d="M187.827,221.792c-4.267,0-7.726-3.459-7.726-7.726v-13.26c0-4.267,3.459-7.726,7.726-7.726
		c4.267,0,7.726,3.459,7.726,7.726v13.26C195.553,218.332,192.094,221.792,187.827,221.792z"/>
	<path style="fill:#E69B4C;" d="M196.858,241.282h-18.06c-4.267,0-7.726-3.459-7.726-7.726s3.459-7.726,7.726-7.726h18.06
		c4.267,0,7.726,3.459,7.726,7.726S201.125,241.282,196.858,241.282z"/>
	<path style="fill:#E69B4C;" d="M324.22,221.792c-4.268,0-7.726-3.459-7.726-7.726v-13.26c0-4.267,3.458-7.726,7.726-7.726
		s7.726,3.459,7.726,7.726v13.26C331.946,218.332,328.488,221.792,324.22,221.792z"/>
	<path style="fill:#E69B4C;" d="M333.251,241.282h-18.06c-4.268,0-7.726-3.459-7.726-7.726s3.458-7.726,7.726-7.726h18.06
		c4.268,0,7.726,3.459,7.726,7.726S337.519,241.282,333.251,241.282z"/>
	<path style="fill:#E69B4C;" d="M256.024,240.533c-6.984,0-13.55-2.93-18.015-8.038c-2.808-3.213-2.481-8.094,0.732-10.902
		c3.212-2.807,8.094-2.481,10.902,0.732c1.53,1.751,3.856,2.755,6.38,2.755c2.525,0,4.85-1.004,6.38-2.755
		c2.808-3.213,7.689-3.541,10.902-0.732c3.213,2.808,3.541,7.689,0.732,10.902C269.573,237.603,263.008,240.533,256.024,240.533z"/>
</g>
<path style="fill:#FFAC55;" d="M196.192,350.904h-17.845c6.772-31.793,14.216-55.471,14.216-55.471l-0.096-0.391
	c-6.984-3.93-13.535-8.488-19.569-13.593h-0.598c0,0-42.135,27.707-42.135,76.19c0,48.484,66.026,37.037,66.026,37.037
	c11.305,0,20.47-9.164,20.47-20.47v-2.831C216.663,360.069,207.497,350.904,196.192,350.904z"/>
<path style="fill:#E69B4C;" d="M150.769,357.637c0-33.403,19.998-56.941,32.439-68.355c-3.58-2.444-7.025-5.055-10.311-7.836H172.3
	c0,0-42.135,27.707-42.135,76.19c0,39.92,44.753,39.211,60.567,37.715C172.269,393.454,150.769,385.306,150.769,357.637z"/>
<path style="fill:#FFAC55;" d="M315.788,350.904h17.845c-6.772-31.793-14.216-55.471-14.216-55.471l0.096-0.391
	c6.984-3.93,13.535-8.488,19.569-13.593h0.597c0,0,42.135,27.707,42.135,76.19c0,48.484-66.026,37.037-66.026,37.037
	c-11.305,0-20.47-9.164-20.47-20.47v-2.831C295.317,360.069,304.483,350.904,315.788,350.904z"/>
<g>
</g>
<g>
</g>
<g>
</g>
<g>
</g>
<g>
</g>
<g>
</g>
<g>
</g>
<g>
</g>
<g>
</g>
<g>
</g>
<g>
</g>
<g>
</g>
<g>
</g>
<g>
</g>
<g>
</g>
</svg>
